PathFileType	4	(X/Y/Z)	/Users/itak/Documents/Research/Walk-IL/dataset/trc/00270_00010.trc
DataRate	CameraRate	NumFrames	NumMarkers	Units	OrigDataRate	OrigDataStartFrame	OrigNumFrames
100.000000	100.000000	4	55	mm	100.000000	285	456
Frame#	Time	RPSI			LPSI			L3			STRN			T10			C7			CLAV			RBAK			LBAK			LSHO			LUPA			LAEL			LAOL			LWTS			LWPS			LFRA			LIFD			LHPS			LHTS			RSHO			RUPA			RAEL			RAOL			RWTS			RWPS			RFRA			RIFD			RHTS			RHPS			RBHD			LFHD			RFHD			LBHD			LHIP			RASI			LKNE			LANK			LTIP			LTOE			LMT1			LMT5			LHEE			RKNE			RTHI			RANK			RTIP			RTOE			RMT1			RMT5			RHEE			RHIP			LTHI			LASI			*53			*54			
		X1	Y1	Z1	X2	Y2	Z2	X3	Y3	Z3	X4	Y4	Z4	X5	Y5	Z5	X6	Y6	Z6	X7	Y7	Z7	X8	Y8	Z8	X9	Y9	Z9	X10	Y10	Z10	X11	Y11	Z11	X12	Y12	Z12	X13	Y13	Z13	X14	Y14	Z14	X15	Y15	Z15	X16	Y16	Z16	X17	Y17	Z17	X18	Y18	Z18	X19	Y19	Z19	X20	Y20	Z20	X21	Y21	Z21	X22	Y22	Z22	X23	Y23	Z23	X24	Y24	Z24	X25	Y25	Z25	X26	Y26	Z26	X27	Y27	Z27	X28	Y28	Z28	X29	Y29	Z29	X30	Y30	Z30	X31	Y31	Z31	X32	Y32	Z32	X33	Y33	Z33	X34	Y34	Z34	X35	Y35	Z35	X36	Y36	Z36	X37	Y37	Z37	X38	Y38	Z38	X39	Y39	Z39	X40	Y40	Z40	X41	Y41	Z41	X42	Y42	Z42	X43	Y43	Z43	X44	Y44	Z44	X45	Y45	Z45	X46	Y46	Z46	X47	Y47	Z47	X48	Y48	Z48	X49	Y49	Z49	X50	Y50	Z50	X51	Y51	Z51	X52	Y52	Z52	X53	Y53	Z53	X54	Y54	Z54	X55	Y55	Z55	

286	2.85	-707.3798217773438	980.0108642578125	17.5196704864502	-705.94189453125	980.8027954101562	-157.5463562011719	-683.0113525390625	1057.418579101562	-83.20824432373047	-413.2798461914062	1214.626831054688	-85.44131469726562	-681.9694213867188	1175.36767578125	-98.45335388183594	-612.293212890625	1413.637329101562	-130.0038909912109	-465.4354553222656	1320.081420898438	-98.90746307373047	-683.28662109375	1286.756958007812	-50.50876617431641	-620.4578857421875	1370.1337890625	-232.2782897949219	-524.8276977539062	1366.158813476562	-271.7656860351562	-552.005126953125	1248.074462890625	-343.42529296875	-556.3062133789062	1050.174682617188	-354.4221496582031	-630.742919921875	1034.564086914062	-310.0486755371094	-433.2608642578125	871.5645141601562	-289.0136108398438	-456.0220947265625	845.08056640625	-353.2374877929688	-523.0364990234375	956.474609375	-357.6930847167969	-362.1183471679688	698.967529296875	-277.7411193847656	-419.3436889648438	763.9699096679688	-344.1723327636719	-374.8309326171875	788.061279296875	-303.7906188964844	-567.6905517578125	1401.857177734375	36.49204635620117	-593.6919555664062	1356.168579101562	105.5694808959961	-694.8841552734375	1119.061889648438	166.7371063232422	-701.5846557617188	1100.947875976562	72.44379425048828	-637.446044921875	880.0878295898438	192.8714447021484	-707.142333984375	896.6548461914062	239.8296203613281	-697.5899047851562	1053.390625	195.6850891113281	-672.3690185546875	699.319580078125	216.4964447021484	-644.7103271484375	767.1428833007812	232.8648986816406	-710.3594970703125	783.1364135742188	257.4706420898438	-585.0035400390625	1574.547119140625	-71.54879760742188	-407.6483154296875	1593.944580078125	-186.8684997558594	-413.5860290527344	1607.077514648438	-94.82331085205078	-575.40283203125	1544.038208007812	-214.4698638916016	-642.5327758789062	932.5470581054688	-256.8735046386719	-488.0329284667969	936.874755859375	41.34019470214844	-616.8916625976562	464.2166748046875	-211.8779144287109	-823.2984008789062	60.5032844543457	-181.844970703125	-722.7802734375	254.6255493164062	-203.7930450439453	-632.388427734375	37.62972259521484	-88.96492767333984	-709.5128784179688	32.76682281494141	-62.61635589599609	-700.0616455078125	50.00248336791992	-173.3349609375	-882.3611450195312	65.20085144042969	-134.5482788085938	-381.6152038574219	514.2210083007812	84.33545684814453	-485.0347900390625	753.4075927734375	114.9820327758789	-369.2852172851562	63.90287780761719	76.53019714355469	-345.541748046875	393.2041625976562	78.14520263671875	-184.3405303955078	110.9217147827148	29.71698760986328	-234.3700714111328	87.86688232421875	-12.23452758789062	-266.8069458007812	75.40351867675781	101.9793090820312	-418.1066589355469	50.10638427734375	24.45892143249512	-602.0013427734375	932.7431030273438	119.5691452026367	-607.5570678710938	606.0172729492188	-236.2340545654297	-499.2478942871094	930.5029296875	-209.8642730712891	nan	nan	nan	nan	nan	nan	
287	2.86	-715.8472900390625	980.8319702148438	15.1682653427124	-713.2362670898438	981.6917724609375	-159.9149780273438	-690.26025390625	1058.529418945312	-84.7349853515625	-420.7933959960938	1216.049072265625	-86.81739807128906	-689.8787231445312	1176.769287109375	-99.20557403564453	-620.0769653320312	1414.974731445312	-130.6733093261719	-473.0731201171875	1321.468627929688	-100.3523406982422	-690.6961059570312	1288.224243164062	-50.58665466308594	-628.8611450195312	1371.4736328125	-232.8097991943359	-533.4815673828125	1367.4794921875	-273.0299987792969	-562.0237426757812	1249.536743164062	-344.5638732910156	-567.4931640625	1051.298583984375	-355.6136779785156	-641.0072021484375	1036.436767578125	-309.5663757324219	-445.6700744628906	870.713623046875	-292.3367919921875	-470.00537109375	844.6701049804688	-356.162841796875	-535.4119873046875	957.0945434570312	-359.3619079589844	-377.1091003417969	696.9000244140625	-282.8739624023438	-434.4554748535156	763.0204467773438	-347.9064636230469	-388.65234375	786.47021484375	-308.2679443359375	-574.3077392578125	1403.22216796875	35.5624885559082	-599.5601196289062	1357.348388671875	104.9426574707031	-698.12939453125	1119.589233398438	168.2628479003906	-706.2353515625	1101.207275390625	74.1014404296875	-637.748779296875	881.4102783203125	194.2607421875	-707.1190185546875	897.4127807617188	242.1559295654297	-699.8614501953125	1054.033081054688	197.4290008544922	-669.9224853515625	700.3642578125	219.9974365234375	-643.0902709960938	768.6627807617188	235.3922729492188	-708.628662109375	784.113525390625	260.6920776367188	-592.3805541992188	1575.9609375	-72.611572265625	-415.4391784667969	1595.023803710938	-188.7365112304688	-421.0355224609375	1608.309204101562	-96.65916442871094	-583.3983154296875	1545.275512695312	-215.5431518554688	-649.1410522460938	933.5255737304688	-258.8117065429688	-496.4671936035156	938.5121459960938	40.56809997558594	-621.2149658203125	465.0401306152344	-212.2506561279297	-823.6907958984375	59.57423400878906	-181.8969879150391	-725.169921875	254.3753204345703	-203.8761596679688	-632.4796752929688	37.65914154052734	-88.93846893310547	-709.6864013671875	32.54376983642578	-62.60775375366211	-700.3296508789062	49.94094848632812	-173.3034515380859	-882.7680053710938	63.65446853637695	-134.5624389648438	-385.0174255371094	518.1409912109375	83.38423919677734	-491.834228515625	756.1488647460938	113.4425277709961	-388.2669372558594	67.16693115234375	75.29695892333984	-352.6463317871094	395.889892578125	77.15341186523438	-201.9996948242188	109.2403717041016	28.86384391784668	-252.5887451171875	87.81271362304688	-13.32778930664062	-285.3485412597656	75.60391235351562	100.9240493774414	-437.4889221191406	55.31841278076172	23.35978126525879	-610.8788452148438	934.0870361328125	117.9010162353516	-612.6897583007812	606.9475708007812	-236.9909057617188	-505.9710998535156	931.9147338867188	-210.5482177734375	nan	nan	nan	nan	nan	nan	
288	2.87	-724.0311279296875	981.6995849609375	12.95888042449951	-720.3994140625	982.6105346679688	-162.1299896240234	-697.51806640625	1059.7470703125	-86.25483703613281	-428.1615600585938	1217.601928710938	-88.0224609375	-697.713623046875	1178.279052734375	-100.0238265991211	-627.768310546875	1416.398681640625	-131.3764495849609	-480.6285705566406	1322.914916992188	-101.6827621459961	-698.0555419921875	1289.7548828125	-50.75024795532227	-637.0255737304688	1372.888427734375	-233.3817901611328	-541.8456420898438	1368.868774414062	-274.204345703125	-571.6053466796875	1251.074462890625	-345.6479797363281	-578.4390869140625	1052.4892578125	-356.738525390625	-650.9918212890625	1038.445556640625	-309.0106201171875	-458.3096618652344	869.6210327148438	-295.692626953125	-484.3163452148438	844.1357421875	-359.0838623046875	-547.7836303710938	957.7098388671875	-360.9914855957031	-392.7151489257812	694.5333251953125	-288.1667785644531	-450.1334228515625	761.8939208984375	-351.7154846191406	-402.88134765625	784.592041015625	-312.9446716308594	-580.9800415039062	1404.673828125	34.61666870117188	-605.4541015625	1358.618774414062	104.2858657836914	-701.2334594726562	1120.195922851562	169.7386474609375	-710.6685791015625	1101.479125976562	75.73541259765625	-637.8153686523438	882.8859252929688	195.7425384521484	-706.8357543945312	898.334716796875	244.5114135742188	-701.9175415039062	1054.784057617188	199.1544342041016	-667.33056640625	701.5729370117188	223.5800933837891	-641.2601928710938	770.3755493164062	238.0007629394531	-706.6515502929688	785.3023681640625	263.9605407714844	-599.7577514648438	1577.391357421875	-73.56553649902344	-423.2279357910156	1596.2412109375	-190.4986267089844	-428.4950561523438	1609.636108398438	-98.36213684082031	-591.3678588867188	1546.59375	-216.5202331542969	-655.5990600585938	934.5391845703125	-260.6142272949219	-504.5997924804688	940.306640625	39.76962280273438	-625.618408203125	465.981689453125	-212.6934051513672	-824.0526733398438	58.73005294799805	-181.9468688964844	-727.5458984375	254.3592834472656	-204.040771484375	-632.5731201171875	37.70289611816406	-88.91330718994141	-709.8307495117188	32.38753890991211	-62.6170768737793	-700.571044921875	49.89225387573242	-173.3072052001953	-883.123291015625	62.25305938720703	-134.5643157958984	-388.3882446289062	522.089111328125	82.54583740234375	-498.3727111816406	758.9430541992188	111.9412155151367	-408.140869140625	71.00868988037109	74.09351348876953	-359.9816589355469	398.6871337890625	76.23240661621094	-220.6194000244141	107.7593612670898	28.01764869689941	-271.7283325195312	88.07328796386719	-14.39016056060791	-304.8400573730469	76.19688415527344	99.89728546142578	-457.7749938964844	61.1308708190918	22.30486869812012	-619.4138793945312	935.5191650390625	116.2945175170898	-617.908203125	607.9848022460938	-237.7875823974609	-512.6381225585938	933.4472045898438	-211.3027648925781	nan	nan	nan	nan	nan	nan	
289	2.88	-731.9129028320312	982.6195678710938	10.9102668762207	-727.4620971679688	983.53564453125	-164.1796112060547	-704.7781372070312	1061.0556640625	-87.72586059570312	-435.4043579101562	1219.26611328125	-89.08531188964844	-705.4435424804688	1179.8447265625	-100.8738861083984	-635.3919677734375	1417.87890625	-132.1021575927734	-488.1156311035156	1324.414184570312	-102.9006195068359	-705.3727416992188	1291.317016601562	-50.99023056030273	-644.9888305664062	1374.350463867188	-233.9868927001953	-549.9653930664062	1370.310668945312	-275.290771484375	-580.7591552734375	1252.667602539062	-346.6803283691406	-589.1074829101562	1053.7412109375	-357.81396484375	-660.6951904296875	1040.558349609375	-308.451171875	-471.1736755371094	868.2991943359375	-299.0689392089844	-498.9298706054688	843.4912109375	-361.9855346679688	-560.1142578125	958.313720703125	-362.5930480957031	-408.9360046386719	691.8973388671875	-293.5495300292969	-466.349365234375	760.6193237304688	-355.5530090332031	-417.5492553710938	782.4219360351562	-317.78173828125	-587.721435546875	1406.192260742188	33.6609992980957	-611.3870239257812	1359.963256835938	103.6060180664062	-704.2332153320312	1120.8779296875	171.1607360839844	-714.9141235351562	1101.765014648438	77.33974456787109	-637.6687622070312	884.5078125	197.2676239013672	-706.2959594726562	899.4105834960938	246.8753662109375	-703.7939453125	1055.634399414062	200.8484497070312	-664.58154296875	702.9495239257812	227.1770477294922	-639.2235107421875	772.2698974609375	240.6218719482422	-704.4232788085938	786.6874389648438	267.2340698242188	-607.1475830078125	1578.837890625	-74.42507934570312	-431.0082702636719	1597.56396484375	-192.1517639160156	-435.9617614746094	1611.02880859375	-99.93008422851562	-599.3095703125	1547.980346679688	-217.4115295410156	-661.9323120117188	935.5552368164062	-262.2742614746094	-512.4146118164062	942.2044677734375	38.90651321411133	-630.100341796875	467.0078735351562	-213.1742401123047	-824.3919067382812	57.95405960083008	-181.9649505615234	-729.9121704101562	254.5556030273438	-204.2729187011719	-632.6716918945312	37.77127838134766	-88.87883758544922	-709.93701171875	32.28049468994141	-62.62782669067383	-700.788330078125	49.8576545715332	-173.3280029296875	-883.4318237304688	60.96603393554688	-134.5186462402344	-391.8387756347656	525.9808349609375	81.83244323730469	-504.692626953125	761.7282104492188	110.4962387084961	-428.7803649902344	75.46694183349609	72.94544219970703	-367.5940246582031	401.5578002929688	75.40920257568359	-240.1117248535156	106.5521545410156	27.24220085144043	-291.6851501464844	88.72035217285156	-15.34492778778076	-325.2071228027344	77.23837280273438	98.93837738037109	-478.8000793457031	67.55953216552734	21.27849578857422	-627.5800170898438	937.0272216796875	114.744514465332	-623.1444702148438	609.0704345703125	-238.5809326171875	-519.2699584960938	935.0569458007812	-212.1650543212891	nan	nan	nan	nan	nan	nan	
